<svg width="20" height="21" viewBox="0 0 20 21" fill="none" xmlns="http://www.w3.org/2000/svg">
<path d="M13.4097 15.5982C11.7399 16.8812 9.63851 17.4865 7.53338 17.2908C5.42824 17.0951 3.47766 16.1131 2.07881 14.5448C0.679961 12.9766 -0.0619809 10.9399 0.00405863 8.84955C0.0700982 6.75919 0.939153 4.77232 2.43427 3.29349C3.92939 1.81466 5.93814 0.955077 8.05152 0.889757C10.1649 0.824437 12.224 1.55829 13.8096 2.94191C15.3951 4.32552 16.3879 6.25484 16.5857 8.33704C16.7836 10.4192 16.1717 12.4978 14.8745 14.1494L19.6936 18.8981C20.1016 19.3001 20.1022 19.9531 19.695 20.3558C19.2878 20.7586 18.6273 20.7583 18.2204 20.3552L13.4201 15.5982H13.4097ZM8.31916 15.2694C9.13773 15.2694 9.94829 15.1099 10.7045 14.8001C11.4608 14.4902 12.148 14.0361 12.7268 13.4636C13.3056 12.8911 13.7647 12.2114 14.078 11.4634C14.3913 10.7154 14.5525 9.91364 14.5525 9.10399C14.5525 8.29434 14.3913 7.49261 14.078 6.74459C13.7647 5.99656 13.3056 5.31689 12.7268 4.74438C12.148 4.17187 11.4608 3.71773 10.7045 3.40789C9.94829 3.09805 9.13773 2.93857 8.31916 2.93857C6.66598 2.93857 5.08051 3.58814 3.91153 4.74438C2.74256 5.90062 2.08583 7.46882 2.08583 9.10399C2.08583 10.7392 2.74256 12.3074 3.91153 13.4636C5.08051 14.6198 6.66598 15.2694 8.31916 15.2694Z" fill="#364E55"/>
</svg>
